<svg width="313" height="313" viewBox="0 0 313 313" fill="none" xmlns="http://www.w3.org/2000/svg">
<path d="M149 4.33013C153.641 1.65063 159.359 1.65063 164 4.33013L284.533 73.9199C289.174 76.5994 292.033 81.5513 292.033 86.9103V226.09C292.033 231.449 289.174 236.401 284.533 239.08L164 308.67C159.359 311.349 153.641 311.349 149 308.67L28.467 239.08C23.826 236.401 20.967 231.449 20.967 226.09V86.9103C20.967 81.5513 23.826 76.5994 28.467 73.9199L149 4.33013Z" fill="#1E1E1E"/>
<path d="M68.0837 199.333H69.8615V201.111H68.0837V199.333ZM68.0837 201.111H69.8615V202.889H68.0837V201.111ZM68.0837 202.889H69.8615V204.667H68.0837V202.889ZM68.0837 204.667H69.8615V206.444H68.0837V204.667ZM68.0837 206.444H69.8615V208.222H68.0837V206.444ZM68.0837 208.222H69.8615V210H68.0837V208.222ZM68.0837 210H69.8615V211.778H68.0837V210ZM68.0837 211.778H69.8615V213.556H68.0837V211.778ZM68.0837 213.556H69.8615V215.333H68.0837V213.556ZM68.0837 215.333H69.8615V217.111H68.0837V215.333ZM68.0837 217.111H69.8615V218.889H68.0837V217.111ZM68.0837 218.889H69.8615V220.667H68.0837V218.889ZM68.0837 220.667H69.8615V222.444H68.0837V220.667ZM68.0837 222.444H69.8615V224.222H68.0837V222.444ZM68.0837 224.222H69.8615V226H68.0837V224.222ZM66.3059 224.222H68.0837V226H66.3059V224.222ZM66.3059 222.444H68.0837V224.222H66.3059V222.444ZM66.3059 220.667H68.0837V222.444H66.3059V220.667ZM66.3059 201.111H68.0837V202.889H66.3059V201.111ZM66.3059 199.333H68.0837V201.111H66.3059V199.333ZM66.3059 202.889H68.0837V204.667H66.3059V202.889ZM66.3059 204.667H68.0837V206.444H66.3059V204.667ZM66.3059 206.444H68.0837V208.222H66.3059V206.444ZM66.3059 208.222H68.0837V210H66.3059V208.222ZM66.3059 210H68.0837V211.778H66.3059V210ZM66.3059 211.778H68.0837V213.556H66.3059V211.778ZM66.3059 213.556H68.0837V215.333H66.3059V213.556ZM66.3059 215.333H68.0837V217.111H66.3059V215.333ZM66.3059 217.111H68.0837V218.889H66.3059V217.111ZM66.3059 218.889H68.0837V220.667H66.3059V218.889ZM69.8615 224.222H71.6392V226H69.8615V224.222ZM69.8615 222.444H71.6392V224.222H69.8615V222.444ZM69.8615 220.667H71.6392V222.444H69.8615V220.667ZM69.8615 218.889H71.6392V220.667H69.8615V218.889ZM69.8615 215.333H71.6392V217.111H69.8615V215.333ZM69.8615 213.556H71.6392V215.333H69.8615V213.556ZM69.8615 211.778H71.6392V213.556H69.8615V211.778ZM69.8615 210H71.6392V211.778H69.8615V210ZM69.8615 208.222H71.6392V210H69.8615V208.222ZM69.8615 206.444H71.6392V208.222H69.8615V206.444ZM69.8615 199.333H71.6392V201.111H69.8615V199.333ZM69.8615 201.111H71.6392V202.889H69.8615V201.111ZM69.8615 202.889H71.6392V204.667H69.8615V202.889ZM69.8615 204.667H71.6392V206.444H69.8615V204.667ZM69.8615 217.111H71.6392V218.889H69.8615V217.111ZM71.6392 199.333H73.417V201.111H71.6392V199.333ZM73.417 199.333H75.1948V201.111H73.417V199.333ZM75.1948 199.333H76.9726V201.111H75.1948V199.333ZM76.9726 199.333H78.7503V201.111H76.9726V199.333ZM78.7503 199.333H80.5281V201.111H78.7503V199.333ZM80.5281 199.333H82.3059V201.111H80.5281V199.333ZM80.5281 201.111H82.3059V202.889H80.5281V201.111ZM80.5281 202.889H82.3059V204.667H80.5281V202.889ZM78.7503 202.889H80.5281V204.667H78.7503V202.889ZM76.9726 202.889H78.7503V204.667H76.9726V202.889ZM75.1948 202.889H76.9726V204.667H75.1948V202.889ZM73.417 202.889H75.1948V204.667H73.417V202.889ZM73.417 201.111H75.1948V202.889H73.417V201.111ZM71.6392 201.111H73.417V202.889H71.6392V201.111ZM71.6392 202.889H73.417V204.667H71.6392V202.889ZM75.1948 201.111H76.9726V202.889H75.1948V201.111ZM76.9726 201.111H78.7503V202.889H76.9726V201.111ZM78.7503 201.111H80.5281V202.889H78.7503V201.111ZM71.6392 210H73.417V211.778H71.6392V210ZM71.6392 211.778H73.417V213.556H71.6392V211.778ZM71.6392 213.556H73.417V215.333H71.6392V213.556ZM73.417 213.556H75.1948V215.333H73.417V213.556ZM73.417 211.778H75.1948V213.556H73.417V211.778ZM73.417 210H75.1948V211.778H73.417V210ZM75.1948 210H76.9726V211.778H75.1948V210ZM75.1948 211.778H76.9726V213.556H75.1948V211.778ZM76.9726 211.778H78.7503V213.556H76.9726V211.778ZM76.9726 210H78.7503V211.778H76.9726V210ZM76.9726 213.556H78.7503V215.333H76.9726V213.556ZM75.1948 213.556H76.9726V215.333H75.1948V213.556ZM78.7503 210H80.5281V211.778H78.7503V210ZM78.7503 211.778H80.5281V213.556H78.7503V211.778ZM78.7503 213.556H80.5281V215.333H78.7503V213.556ZM88.8715 224.222H90.6493V226H88.8715V224.222ZM90.6493 224.222H92.4271V226H90.6493V224.222ZM92.4271 224.222H94.2049V226H92.4271V224.222ZM92.4271 222.444H94.2049V224.222H92.4271V222.444ZM92.4271 220.667H94.2049V222.444H92.4271V220.667ZM92.4271 218.889H94.2049V220.667H92.4271V218.889ZM92.4271 217.111H94.2049V218.889H92.4271V217.111ZM92.4271 215.333H94.2049V217.111H92.4271V215.333ZM92.4271 213.556H94.2049V215.333H92.4271V213.556ZM92.4271 211.778H94.2049V213.556H92.4271V211.778ZM92.4271 210H94.2049V211.778H92.4271V210ZM90.6493 210H92.4271V211.778H90.6493V210ZM90.6493 208.222H92.4271V210H90.6493V208.222ZM88.8715 210H90.6493V211.778H88.8715V210ZM88.8715 211.778H90.6493V213.556H88.8715V211.778ZM88.8715 213.556H90.6493V215.333H88.8715V213.556ZM88.8715 215.333H90.6493V217.111H88.8715V215.333ZM88.8715 217.111H90.6493V218.889H88.8715V217.111ZM88.8715 218.889H90.6493V220.667H88.8715V218.889ZM88.8715 220.667H90.6493V222.444H88.8715V220.667ZM88.8715 222.444H90.6493V224.222H88.8715V222.444ZM90.6493 222.444H92.4271V224.222H90.6493V222.444ZM90.6493 220.667H92.4271V222.444H90.6493V220.667ZM90.6493 218.889H92.4271V220.667H90.6493V218.889ZM88.8715 208.222H90.6493V210H88.8715V208.222ZM92.4271 208.222H94.2049V210H92.4271V208.222ZM90.6493 211.778H92.4271V213.556H90.6493V211.778ZM90.6493 213.556H92.4271V215.333H90.6493V213.556ZM90.6493 215.333H92.4271V217.111H90.6493V215.333ZM90.6493 217.111H92.4271V218.889H90.6493V217.111ZM88.8715 199.333H90.6493V201.111H88.8715V199.333ZM90.6493 199.333H92.4271V201.111H90.6493V199.333ZM92.4271 199.333H94.2049V201.111H92.4271V199.333ZM92.4271 201.111H94.2049V202.889H92.4271V201.111ZM92.4271 202.889H94.2049V204.667H92.4271V202.889ZM92.4271 204.667H94.2049V206.444H92.4271V204.667ZM92.4271 206.444H94.2049V208.222H92.4271V206.444ZM90.6493 206.444H92.4271V208.222H90.6493V206.444ZM90.6493 204.667H92.4271V206.444H90.6493V204.667ZM90.6493 202.889H92.4271V204.667H90.6493V202.889ZM90.6493 201.111H92.4271V202.889H90.6493V201.111ZM88.8715 201.111H90.6493V202.889H88.8715V201.111ZM88.8715 202.889H90.6493V204.667H88.8715V202.889ZM88.8715 204.667H90.6493V206.444H88.8715V204.667ZM88.8715 206.444H90.6493V208.222H88.8715V206.444ZM116.8 199.333H118.578V201.111H116.8V199.333ZM115.022 199.333H116.8V201.111H115.022V199.333ZM113.244 199.333H115.022V201.111H113.244V199.333ZM109.689 199.333H111.467V201.111H109.689V199.333ZM107.911 199.333H109.689V201.111H107.911V199.333ZM106.133 199.333H107.911V201.111H106.133V199.333ZM111.467 199.333H113.244V201.111H111.467V199.333ZM111.467 201.111H113.244V202.889H111.467V201.111ZM113.244 201.111H115.022V202.889H113.244V201.111ZM115.022 201.111H116.8V202.889H115.022V201.111ZM116.8 201.111H118.578V202.889H116.8V201.111ZM118.578 201.111H120.356V202.889H118.578V201.111ZM109.689 201.111H111.467V202.889H109.689V201.111ZM107.911 201.111H109.689V202.889H107.911V201.111ZM106.133 201.111H107.911V202.889H106.133V201.111ZM104.356 201.111H106.133V202.889H104.356V201.111ZM102.578 202.889H104.356V204.667H102.578V202.889ZM104.356 202.889H106.133V204.667H104.356V202.889ZM106.133 202.889H107.911V204.667H106.133V202.889ZM107.911 202.889H109.689V204.667H107.911V202.889ZM109.689 202.889H111.467V204.667H109.689V202.889ZM111.467 202.889H113.244V204.667H111.467V202.889ZM113.244 202.889H115.022V204.667H113.244V202.889ZM115.022 202.889H116.8V204.667H115.022V202.889ZM116.8 202.889H118.578V204.667H116.8V202.889ZM118.578 202.889H120.356V204.667H118.578V202.889ZM120.356 202.889H122.133V204.667H120.356V202.889ZM120.356 204.667H122.133V206.444H120.356V204.667ZM120.356 206.444H122.133V208.222H120.356V206.444ZM118.578 206.444H120.356V208.222H118.578V206.444ZM118.578 204.667H120.356V206.444H118.578V204.667ZM116.8 206.444H118.578V208.222H116.8V206.444ZM116.8 204.667H118.578V206.444H116.8V204.667ZM115.022 204.667H116.8V206.444H115.022V204.667ZM107.911 204.667H109.689V206.444H107.911V204.667ZM106.133 204.667H107.911V206.444H106.133V204.667ZM104.356 204.667H106.133V206.444H104.356V204.667ZM102.578 204.667H104.356V206.444H102.578V204.667ZM102.578 206.444H104.356V208.222H102.578V206.444ZM104.356 206.444H106.133V208.222H104.356V206.444ZM104.356 208.222H106.133V210H104.356V208.222ZM106.133 206.444H107.911V208.222H106.133V206.444ZM106.133 208.222H107.911V210H106.133V208.222ZM107.911 208.222H109.689V210H107.911V208.222ZM102.578 208.222H104.356V210H102.578V208.222ZM102.578 210H104.356V211.778H102.578V210ZM104.356 210H106.133V211.778H104.356V210ZM104.356 211.778H106.133V213.556H104.356V211.778ZM106.133 211.778H107.911V213.556H106.133V211.778ZM106.133 210H107.911V211.778H106.133V210ZM107.911 210H109.689V211.778H107.911V210ZM107.911 211.778H109.689V213.556H107.911V211.778ZM106.133 213.556H107.911V215.333H106.133V213.556ZM107.911 213.556H109.689V215.333H107.911V213.556ZM109.689 213.556H111.467V215.333H109.689V213.556ZM111.467 213.556H113.244V215.333H111.467V213.556ZM113.244 213.556H115.022V215.333H113.244V213.556ZM113.244 211.778H115.022V213.556H113.244V211.778ZM115.022 211.778H116.8V213.556H115.022V211.778ZM116.8 211.778H118.578V213.556H116.8V211.778ZM116.8 210H118.578V211.778H116.8V210ZM115.022 210H116.8V211.778H115.022V210ZM113.244 210H115.022V211.778H113.244V210ZM111.467 210H113.244V211.778H111.467V210ZM111.467 211.778H113.244V213.556H111.467V211.778ZM109.689 211.778H111.467V213.556H109.689V211.778ZM109.689 210H111.467V211.778H109.689V210ZM118.578 211.778H120.356V213.556H118.578V211.778ZM118.578 213.556H120.356V215.333H118.578V213.556ZM116.8 213.556H118.578V215.333H116.8V213.556ZM116.8 215.333H118.578V217.111H116.8V215.333ZM115.022 215.333H116.8V217.111H115.022V215.333ZM115.022 213.556H116.8V215.333H115.022V213.556ZM118.578 215.333H120.356V217.111H118.578V215.333ZM120.356 215.333H122.133V217.111H120.356V215.333ZM120.356 213.556H122.133V215.333H120.356V213.556ZM120.356 217.111H122.133V218.889H120.356V217.111ZM120.356 218.889H122.133V220.667H120.356V218.889ZM120.356 220.667H122.133V222.444H120.356V220.667ZM118.578 220.667H120.356V222.444H118.578V220.667ZM118.578 222.444H120.356V224.222H118.578V222.444ZM116.8 222.444H118.578V224.222H116.8V222.444ZM116.8 220.667H118.578V222.444H116.8V220.667ZM115.022 220.667H116.8V222.444H115.022V220.667ZM115.022 218.889H116.8V220.667H115.022V218.889ZM116.8 218.889H118.578V220.667H116.8V218.889ZM116.8 217.111H118.578V218.889H116.8V217.111ZM118.578 217.111H120.356V218.889H118.578V217.111ZM118.578 218.889H120.356V220.667H118.578V218.889ZM102.578 217.111H104.356V218.889H102.578V217.111ZM102.578 218.889H104.356V220.667H102.578V218.889ZM104.356 218.889H106.133V220.667H104.356V218.889ZM104.356 217.111H106.133V218.889H104.356V217.111ZM106.133 217.111H107.911V218.889H106.133V217.111ZM106.133 218.889H107.911V220.667H106.133V218.889ZM102.578 220.667H104.356V222.444H102.578V220.667ZM104.356 220.667H106.133V222.444H104.356V220.667ZM107.911 218.889H109.689V220.667H107.911V218.889ZM107.911 220.667H109.689V222.444H107.911V220.667ZM106.133 220.667H107.911V222.444H106.133V220.667ZM106.133 222.444H107.911V224.222H106.133V222.444ZM104.356 222.444H106.133V224.222H104.356V222.444ZM106.133 224.222H107.911V226H106.133V224.222ZM107.911 224.222H109.689V226H107.911V224.222ZM109.689 224.222H111.467V226H109.689V224.222ZM111.467 224.222H113.244V226H111.467V224.222ZM113.244 224.222H115.022V226H113.244V224.222ZM115.022 224.222H116.8V226H115.022V224.222ZM116.8 224.222H118.578V226H116.8V224.222ZM115.022 222.444H116.8V224.222H115.022V222.444ZM113.244 222.444H115.022V224.222H113.244V222.444ZM111.467 222.444H113.244V224.222H111.467V222.444ZM111.467 220.667H113.244V222.444H111.467V220.667ZM109.689 220.667H111.467V222.444H109.689V220.667ZM113.244 220.667H115.022V222.444H113.244V220.667ZM109.689 222.444H111.467V224.222H109.689V222.444ZM107.911 222.444H109.689V224.222H107.911V222.444ZM135.82 210H137.598V211.778H135.82V210ZM137.598 210H139.376V211.778H137.598V210ZM139.376 210H141.154V211.778H139.376V210ZM141.154 210H142.932V211.778H141.154V210ZM142.932 210H144.709V211.778H142.932V210ZM142.932 211.778H144.709V213.556H142.932V211.778ZM142.932 213.556H144.709V215.333H142.932V213.556ZM141.154 213.556H142.932V215.333H141.154V213.556ZM139.376 213.556H141.154V215.333H139.376V213.556ZM137.598 213.556H139.376V215.333H137.598V213.556ZM135.82 213.556H137.598V215.333H135.82V213.556ZM134.043 213.556H135.82V215.333H134.043V213.556ZM132.265 213.556H134.043V215.333H132.265V213.556ZM134.043 211.778H135.82V213.556H134.043V211.778ZM135.82 211.778H137.598V213.556H135.82V211.778ZM137.598 211.778H139.376V213.556H137.598V211.778ZM139.376 211.778H141.154V213.556H139.376V211.778ZM141.154 211.778H142.932V213.556H141.154V211.778ZM134.043 210H135.82V211.778H134.043V210ZM134.043 208.222H135.82V210H134.043V208.222ZM134.043 206.444H135.82V208.222H134.043V206.444ZM134.043 204.667H135.82V206.444H134.043V204.667ZM134.043 202.889H135.82V204.667H134.043V202.889ZM132.265 201.111H134.043V202.889H132.265V201.111ZM132.265 199.333H134.043V201.111H132.265V199.333ZM134.043 199.333H135.82V201.111H134.043V199.333ZM134.043 201.111H135.82V202.889H134.043V201.111ZM130.487 199.333H132.265V201.111H130.487V199.333ZM130.487 201.111H132.265V202.889H130.487V201.111ZM130.487 202.889H132.265V204.667H130.487V202.889ZM130.487 204.667H132.265V206.444H130.487V204.667ZM130.487 206.444H132.265V208.222H130.487V206.444ZM130.487 208.222H132.265V210H130.487V208.222ZM130.487 210H132.265V211.778H130.487V210ZM130.487 211.778H132.265V213.556H130.487V211.778ZM130.487 213.556H132.265V215.333H130.487V213.556ZM132.265 211.778H134.043V213.556H132.265V211.778ZM132.265 210H134.043V211.778H132.265V210ZM132.265 208.222H134.043V210H132.265V208.222ZM132.265 206.444H134.043V208.222H132.265V206.444ZM132.265 204.667H134.043V206.444H132.265V204.667ZM132.265 202.889H134.043V204.667H132.265V202.889ZM132.265 215.333H134.043V217.111H132.265V215.333ZM132.265 217.111H134.043V218.889H132.265V217.111ZM132.265 218.889H134.043V220.667H132.265V218.889ZM132.265 220.667H134.043V222.444H132.265V220.667ZM130.487 218.889H132.265V220.667H130.487V218.889ZM130.487 217.111H132.265V218.889H130.487V217.111ZM130.487 215.333H132.265V217.111H130.487V215.333ZM134.043 218.889H135.82V220.667H134.043V218.889ZM134.043 220.667H135.82V222.444H134.043V220.667ZM134.043 217.111H135.82V218.889H134.043V217.111ZM134.043 215.333H135.82V217.111H134.043V215.333ZM134.043 222.444H135.82V224.222H134.043V222.444ZM134.043 224.222H135.82V226H134.043V224.222ZM132.265 224.222H134.043V226H132.265V224.222ZM132.265 222.444H134.043V224.222H132.265V222.444ZM130.487 222.444H132.265V224.222H130.487V222.444ZM130.487 220.667H132.265V222.444H130.487V220.667ZM130.487 224.222H132.265V226H130.487V224.222ZM142.932 199.333H144.709V201.111H142.932V199.333ZM144.709 199.333H146.487V201.111H144.709V199.333ZM146.487 199.333H148.265V201.111H146.487V199.333ZM146.487 201.111H148.265V202.889H146.487V201.111ZM146.487 202.889H148.265V204.667H146.487V202.889ZM146.487 204.667H148.265V206.444H146.487V204.667ZM146.487 206.444H148.265V208.222H146.487V206.444ZM146.487 208.222H148.265V210H146.487V208.222ZM144.709 208.222H146.487V210H144.709V208.222ZM144.709 206.444H146.487V208.222H144.709V206.444ZM144.709 204.667H146.487V206.444H144.709V204.667ZM144.709 202.889H146.487V204.667H144.709V202.889ZM144.709 201.111H146.487V202.889H144.709V201.111ZM142.932 201.111H144.709V202.889H142.932V201.111ZM142.932 202.889H144.709V204.667H142.932V202.889ZM142.932 204.667H144.709V206.444H142.932V204.667ZM142.932 206.444H144.709V208.222H142.932V206.444ZM142.932 208.222H144.709V210H142.932V208.222ZM142.932 215.333H144.709V217.111H142.932V215.333ZM144.709 215.333H146.487V217.111H144.709V215.333ZM144.709 217.111H146.487V218.889H144.709V217.111ZM144.709 218.889H146.487V220.667H144.709V218.889ZM144.709 220.667H146.487V222.444H144.709V220.667ZM142.932 220.667H144.709V222.444H142.932V220.667ZM142.932 218.889H144.709V220.667H142.932V218.889ZM142.932 217.111H144.709V218.889H142.932V217.111ZM142.932 222.444H144.709V224.222H142.932V222.444ZM142.932 224.222H144.709V226H142.932V224.222ZM144.709 224.222H146.487V226H144.709V224.222ZM146.487 224.222H148.265V226H146.487V224.222ZM146.487 222.444H148.265V224.222H146.487V222.444ZM146.487 220.667H148.265V222.444H146.487V220.667ZM146.487 218.889H148.265V220.667H146.487V218.889ZM146.487 217.111H148.265V218.889H146.487V217.111ZM146.487 215.333H148.265V217.111H146.487V215.333ZM146.487 213.556H148.265V215.333H146.487V213.556ZM146.487 211.778H148.265V213.556H146.487V211.778ZM144.709 211.778H146.487V213.556H144.709V211.778ZM144.709 210H146.487V211.778H144.709V210ZM146.487 210H148.265V211.778H146.487V210ZM144.709 213.556H146.487V215.333H144.709V213.556ZM144.709 222.444H146.487V224.222H144.709V222.444ZM161.949 224.222H163.726V226H161.949V224.222ZM163.726 224.222H165.504V226H163.726V224.222ZM165.504 224.222H167.282V226H165.504V224.222ZM165.504 222.444H167.282V224.222H165.504V222.444ZM165.504 220.667H167.282V222.444H165.504V220.667ZM165.504 218.889H167.282V220.667H165.504V218.889ZM165.504 217.111H167.282V218.889H165.504V217.111ZM165.504 215.333H167.282V217.111H165.504V215.333ZM165.504 213.556H167.282V215.333H165.504V213.556ZM165.504 211.778H167.282V213.556H165.504V211.778ZM165.504 210H167.282V211.778H165.504V210ZM165.504 208.222H167.282V210H165.504V208.222ZM165.504 206.444H167.282V208.222H165.504V206.444ZM165.504 204.667H167.282V206.444H165.504V204.667ZM163.726 204.667H165.504V206.444H163.726V204.667ZM163.726 202.889H165.504V204.667H163.726V202.889ZM165.504 202.889H167.282V204.667H165.504V202.889ZM161.949 202.889H163.726V204.667H161.949V202.889ZM161.949 210H163.726V211.778H161.949V210ZM161.949 211.778H163.726V213.556H161.949V211.778ZM161.949 213.556H163.726V215.333H161.949V213.556ZM161.949 215.333H163.726V217.111H161.949V215.333ZM161.949 217.111H163.726V218.889H161.949V217.111ZM163.726 218.889H165.504V220.667H163.726V218.889ZM163.726 220.667H165.504V222.444H163.726V220.667ZM163.726 222.444H165.504V224.222H163.726V222.444ZM161.949 222.444H163.726V224.222H161.949V222.444ZM161.949 220.667H163.726V222.444H161.949V220.667ZM161.949 218.889H163.726V220.667H161.949V218.889ZM163.726 211.778H165.504V213.556H163.726V211.778ZM163.726 210H165.504V211.778H163.726V210ZM163.726 208.222H165.504V210H163.726V208.222ZM163.726 206.444H165.504V208.222H163.726V206.444ZM161.949 206.444H163.726V208.222H161.949V206.444ZM161.949 208.222H163.726V210H161.949V208.222ZM163.726 217.111H165.504V218.889H163.726V217.111ZM163.726 215.333H165.504V217.111H163.726V215.333ZM163.726 213.556H165.504V215.333H163.726V213.556ZM161.949 204.667H163.726V206.444H161.949V204.667ZM161.949 201.111H163.726V202.889H161.949V201.111ZM163.726 201.111H165.504V202.889H163.726V201.111ZM165.504 201.111H167.282V202.889H165.504V201.111ZM165.504 199.333H167.282V201.111H165.504V199.333ZM163.726 199.333H165.504V201.111H163.726V199.333ZM161.949 199.333H163.726V201.111H161.949V199.333ZM160.171 199.333H161.949V201.111H160.171V199.333ZM158.393 199.333H160.171V201.111H158.393V199.333ZM158.393 201.111H160.171V202.889H158.393V201.111ZM158.393 202.889H160.171V204.667H158.393V202.889ZM160.171 201.111H161.949V202.889H160.171V201.111ZM160.171 202.889H161.949V204.667H160.171V202.889ZM167.282 199.333H169.06V201.111H167.282V199.333ZM169.06 199.333H170.837V201.111H169.06V199.333ZM169.06 201.111H170.837V202.889H169.06V201.111ZM169.06 202.889H170.837V204.667H169.06V202.889ZM167.282 202.889H169.06V204.667H167.282V202.889ZM167.282 201.111H169.06V202.889H167.282V201.111ZM170.837 199.333H172.615V201.111H170.837V199.333ZM170.837 201.111H172.615V202.889H170.837V201.111ZM170.837 202.889H172.615V204.667H170.837V202.889ZM156.615 199.333H158.393V201.111H156.615V199.333ZM156.615 201.111H158.393V202.889H156.615V201.111ZM156.615 202.889H158.393V204.667H156.615V202.889ZM180.962 224.222H182.74V226H180.962V224.222ZM182.74 224.222H184.518V226H182.74V224.222ZM184.518 224.222H186.295V226H184.518V224.222ZM184.518 222.444H186.295V224.222H184.518V222.444ZM184.518 220.667H186.295V222.444H184.518V220.667ZM184.518 218.889H186.295V220.667H184.518V218.889ZM184.518 217.111H186.295V218.889H184.518V217.111ZM184.518 215.333H186.295V217.111H184.518V215.333ZM184.518 213.556H186.295V215.333H184.518V213.556ZM184.518 211.778H186.295V213.556H184.518V211.778ZM184.518 210H186.295V211.778H184.518V210ZM182.74 210H184.518V211.778H182.74V210ZM182.74 208.222H184.518V210H182.74V208.222ZM180.962 210H182.74V211.778H180.962V210ZM180.962 211.778H182.74V213.556H180.962V211.778ZM180.962 213.556H182.74V215.333H180.962V213.556ZM180.962 215.333H182.74V217.111H180.962V215.333ZM180.962 217.111H182.74V218.889H180.962V217.111ZM180.962 218.889H182.74V220.667H180.962V218.889ZM180.962 220.667H182.74V222.444H180.962V220.667ZM180.962 222.444H182.74V224.222H180.962V222.444ZM182.74 222.444H184.518V224.222H182.74V222.444ZM182.74 220.667H184.518V222.444H182.74V220.667ZM182.74 218.889H184.518V220.667H182.74V218.889ZM180.962 208.222H182.74V210H180.962V208.222ZM184.518 208.222H186.295V210H184.518V208.222ZM182.74 211.778H184.518V213.556H182.74V211.778ZM182.74 213.556H184.518V215.333H182.74V213.556ZM182.74 215.333H184.518V217.111H182.74V215.333ZM182.74 217.111H184.518V218.889H182.74V217.111ZM180.962 199.333H182.74V201.111H180.962V199.333ZM182.74 199.333H184.518V201.111H182.74V199.333ZM184.518 199.333H186.295V201.111H184.518V199.333ZM184.518 201.111H186.295V202.889H184.518V201.111ZM184.518 202.889H186.295V204.667H184.518V202.889ZM184.518 204.667H186.295V206.444H184.518V204.667ZM184.518 206.444H186.295V208.222H184.518V206.444ZM182.74 206.444H184.518V208.222H182.74V206.444ZM182.74 204.667H184.518V206.444H182.74V204.667ZM182.74 202.889H184.518V204.667H182.74V202.889ZM182.74 201.111H184.518V202.889H182.74V201.111ZM180.962 201.111H182.74V202.889H180.962V201.111ZM180.962 202.889H182.74V204.667H180.962V202.889ZM180.962 204.667H182.74V206.444H180.962V204.667ZM180.962 206.444H182.74V208.222H180.962V206.444ZM194.668 199.333H196.446V201.111H194.668V199.333ZM196.446 199.333H198.224V201.111H196.446V199.333ZM196.446 201.111H198.224V202.889H196.446V201.111ZM196.446 202.889H198.224V204.667H196.446V202.889ZM196.446 204.667H198.224V206.444H196.446V204.667ZM196.446 206.444H198.224V208.222H196.446V206.444ZM198.224 204.667H200.002V206.444H198.224V204.667ZM198.224 202.889H200.002V204.667H198.224V202.889ZM198.224 201.111H200.002V202.889H198.224V201.111ZM198.224 199.333H200.002V201.111H198.224V199.333ZM194.668 202.889H196.446V204.667H194.668V202.889ZM194.668 201.111H196.446V202.889H194.668V201.111ZM194.668 204.667H196.446V206.444H194.668V204.667ZM194.668 206.444H196.446V208.222H194.668V206.444ZM194.668 208.222H196.446V210H194.668V208.222ZM194.668 210H196.446V211.778H194.668V210ZM194.668 211.778H196.446V213.556H194.668V211.778ZM194.668 213.556H196.446V215.333H194.668V213.556ZM194.668 215.333H196.446V217.111H194.668V215.333ZM194.668 217.111H196.446V218.889H194.668V217.111ZM194.668 218.889H196.446V220.667H194.668V218.889ZM194.668 220.667H196.446V222.444H194.668V220.667ZM196.446 220.667H198.224V222.444H196.446V220.667ZM196.446 222.444H198.224V224.222H196.446V222.444ZM196.446 224.222H198.224V226H196.446V224.222ZM194.668 224.222H196.446V226H194.668V224.222ZM194.668 222.444H196.446V224.222H194.668V222.444ZM198.224 224.222H200.002V226H198.224V224.222ZM198.224 222.444H200.002V224.222H198.224V222.444ZM198.224 220.667H200.002V222.444H198.224V220.667ZM198.224 218.889H200.002V220.667H198.224V218.889ZM198.224 217.111H200.002V218.889H198.224V217.111ZM198.224 215.333H200.002V217.111H198.224V215.333ZM198.224 213.556H200.002V215.333H198.224V213.556ZM196.446 213.556H198.224V215.333H196.446V213.556ZM196.446 211.778H198.224V213.556H196.446V211.778ZM196.446 210H198.224V211.778H196.446V210ZM196.446 208.222H198.224V210H196.446V208.222ZM198.224 206.444H200.002V208.222H198.224V206.444ZM198.224 208.222H200.002V210H198.224V208.222ZM198.224 210H200.002V211.778H198.224V210ZM198.224 211.778H200.002V213.556H198.224V211.778ZM196.446 215.333H198.224V217.111H196.446V215.333ZM196.446 217.111H198.224V218.889H196.446V217.111ZM196.446 218.889H198.224V220.667H196.446V218.889ZM219.557 199.333H221.335V201.111H219.557V199.333ZM219.557 201.111H221.335V202.889H219.557V201.111ZM219.557 202.889H221.335V204.667H219.557V202.889ZM219.557 204.667H221.335V206.444H219.557V204.667ZM219.557 206.444H221.335V208.222H219.557V206.444ZM219.557 208.222H221.335V210H219.557V208.222ZM219.557 210H221.335V211.778H219.557V210ZM219.557 211.778H221.335V213.556H219.557V211.778ZM219.557 213.556H221.335V215.333H219.557V213.556ZM219.557 215.333H221.335V217.111H219.557V215.333ZM219.557 217.111H221.335V218.889H219.557V217.111ZM219.557 218.889H221.335V220.667H219.557V218.889ZM219.557 220.667H221.335V222.444H219.557V220.667ZM219.557 222.444H221.335V224.222H219.557V222.444ZM219.557 224.222H221.335V226H219.557V224.222ZM217.78 224.222H219.557V226H217.78V224.222ZM216.002 222.444H217.78V224.222H216.002V222.444ZM216.002 220.667H217.78V222.444H216.002V220.667ZM216.002 224.222H217.78V226H216.002V224.222ZM217.78 222.444H219.557V224.222H217.78V222.444ZM217.78 220.667H219.557V222.444H217.78V220.667ZM217.78 218.889H219.557V220.667H217.78V218.889ZM217.78 217.111H219.557V218.889H217.78V217.111ZM217.78 215.333H219.557V217.111H217.78V215.333ZM217.78 213.556H219.557V215.333H217.78V213.556ZM217.78 211.778H219.557V213.556H217.78V211.778ZM217.78 210H219.557V211.778H217.78V210ZM217.78 208.222H219.557V210H217.78V208.222ZM217.78 206.444H219.557V208.222H217.78V206.444ZM217.78 204.667H219.557V206.444H217.78V204.667ZM217.78 202.889H219.557V204.667H217.78V202.889ZM217.78 201.111H219.557V202.889H217.78V201.111ZM217.78 199.333H219.557V201.111H217.78V199.333ZM216.002 199.333H217.78V201.111H216.002V199.333ZM216.002 201.111H217.78V202.889H216.002V201.111ZM216.002 202.889H217.78V204.667H216.002V202.889ZM216.002 204.667H217.78V206.444H216.002V204.667ZM216.002 208.222H217.78V210H216.002V208.222ZM216.002 210H217.78V211.778H216.002V210ZM216.002 211.778H217.78V213.556H216.002V211.778ZM216.002 213.556H217.78V215.333H216.002V213.556ZM216.002 218.889H217.78V220.667H216.002V218.889ZM216.002 217.111H217.78V218.889H216.002V217.111ZM216.002 215.333H217.78V217.111H216.002V215.333ZM216.002 206.444H217.78V208.222H216.002V206.444ZM200.002 201.111H201.78V202.889H200.002V201.111ZM200.002 202.889H201.78V204.667H200.002V202.889ZM200.002 204.667H201.78V206.444H200.002V204.667ZM200.002 206.444H201.78V208.222H200.002V206.444ZM200.002 208.222H201.78V210H200.002V208.222ZM201.78 202.889H203.557V204.667H201.78V202.889ZM201.78 204.667H203.557V206.444H201.78V204.667ZM201.78 206.444H203.557V208.222H201.78V206.444ZM201.78 208.222H203.557V210H201.78V208.222ZM201.78 210H203.557V211.778H201.78V210ZM203.557 204.667H205.335V206.444H203.557V204.667ZM203.557 206.444H205.335V208.222H203.557V206.444ZM203.557 208.222H205.335V210H203.557V208.222ZM203.557 210H205.335V211.778H203.557V210ZM203.557 211.778H205.335V213.556H203.557V211.778ZM205.335 206.444H207.113V208.222H205.335V206.444ZM205.335 208.222H207.113V210H205.335V208.222ZM205.335 210H207.113V211.778H205.335V210ZM205.335 211.778H207.113V213.556H205.335V211.778ZM205.335 213.556H207.113V215.333H205.335V213.556ZM207.113 208.222H208.891V210H207.113V208.222ZM207.113 210H208.891V211.778H207.113V210ZM207.113 211.778H208.891V213.556H207.113V211.778ZM208.891 206.444H210.668V208.222H208.891V206.444ZM208.891 208.222H210.668V210H208.891V208.222ZM208.891 210H210.668V211.778H208.891V210ZM210.668 204.667H212.446V206.444H210.668V204.667ZM210.668 206.444H212.446V208.222H210.668V206.444ZM210.668 208.222H212.446V210H210.668V208.222ZM214.224 201.111H216.002V202.889H214.224V201.111ZM214.224 202.889H216.002V204.667H214.224V202.889ZM214.224 204.667H216.002V206.444H214.224V204.667ZM214.224 206.444H216.002V208.222H214.224V206.444ZM214.224 208.222H216.002V210H214.224V208.222ZM212.446 202.889H214.224V204.667H212.446V202.889ZM212.446 204.667H214.224V206.444H212.446V204.667ZM212.446 206.444H214.224V208.222H212.446V206.444ZM212.446 208.222H214.224V210H212.446V208.222ZM212.446 210H214.224V211.778H212.446V210ZM210.668 210H212.446V211.778H210.668V210ZM210.668 211.778H212.446V213.556H210.668V211.778ZM208.891 211.778H210.668V213.556H208.891V211.778ZM208.891 213.556H210.668V215.333H208.891V213.556ZM207.113 213.556H208.891V215.333H207.113V213.556ZM207.113 215.333H208.891V217.111H207.113V215.333ZM231.481 199.333H233.258V201.111H231.481V199.333ZM231.481 201.111H233.258V202.889H231.481V201.111ZM231.481 202.889H233.258V204.667H231.481V202.889ZM231.481 204.667H233.258V206.444H231.481V204.667ZM231.481 206.444H233.258V208.222H231.481V206.444ZM231.481 208.222H233.258V210H231.481V208.222ZM231.481 210H233.258V211.778H231.481V210ZM231.481 211.778H233.258V213.556H231.481V211.778ZM231.481 213.556H233.258V215.333H231.481V213.556ZM231.481 215.333H233.258V217.111H231.481V215.333ZM231.481 217.111H233.258V218.889H231.481V217.111ZM231.481 218.889H233.258V220.667H231.481V218.889ZM231.481 220.667H233.258V222.444H231.481V220.667ZM231.481 222.444H233.258V224.222H231.481V222.444ZM231.481 224.222H233.258V226H231.481V224.222ZM229.703 224.222H231.481V226H229.703V224.222ZM229.703 222.444H231.481V224.222H229.703V222.444ZM229.703 220.667H231.481V222.444H229.703V220.667ZM229.703 201.111H231.481V202.889H229.703V201.111ZM229.703 199.333H231.481V201.111H229.703V199.333ZM229.703 202.889H231.481V204.667H229.703V202.889ZM229.703 204.667H231.481V206.444H229.703V204.667ZM229.703 206.444H231.481V208.222H229.703V206.444ZM229.703 208.222H231.481V210H229.703V208.222ZM229.703 210H231.481V211.778H229.703V210ZM229.703 211.778H231.481V213.556H229.703V211.778ZM229.703 213.556H231.481V215.333H229.703V213.556ZM229.703 215.333H231.481V217.111H229.703V215.333ZM229.703 217.111H231.481V218.889H229.703V217.111ZM229.703 218.889H231.481V220.667H229.703V218.889ZM233.258 224.222H235.036V226H233.258V224.222ZM233.258 222.444H235.036V224.222H233.258V222.444ZM233.258 220.667H235.036V222.444H233.258V220.667ZM233.258 218.889H235.036V220.667H233.258V218.889ZM233.258 215.333H235.036V217.111H233.258V215.333ZM233.258 213.556H235.036V215.333H233.258V213.556ZM233.258 211.778H235.036V213.556H233.258V211.778ZM233.258 210H235.036V211.778H233.258V210ZM233.258 208.222H235.036V210H233.258V208.222ZM233.258 206.444H235.036V208.222H233.258V206.444ZM233.258 199.333H235.036V201.111H233.258V199.333ZM233.258 201.111H235.036V202.889H233.258V201.111ZM233.258 202.889H235.036V204.667H233.258V202.889ZM233.258 204.667H235.036V206.444H233.258V204.667ZM233.258 217.111H235.036V218.889H233.258V217.111ZM235.036 224.222H236.814V226H235.036V224.222ZM236.814 224.222H238.592V226H236.814V224.222ZM238.592 224.222H240.369V226H238.592V224.222ZM238.592 222.444H240.369V224.222H238.592V222.444ZM238.592 220.667H240.369V222.444H238.592V220.667ZM236.814 220.667H238.592V222.444H236.814V220.667ZM236.814 222.444H238.592V224.222H236.814V222.444ZM235.036 222.444H236.814V224.222H235.036V222.444ZM235.036 220.667H236.814V222.444H235.036V220.667ZM240.369 220.667H242.147V222.444H240.369V220.667ZM240.369 222.444H242.147V224.222H240.369V222.444ZM240.369 224.222H242.147V226H240.369V224.222ZM242.147 224.222H243.925V226H242.147V224.222ZM242.147 222.444H243.925V224.222H242.147V222.444ZM242.147 220.667H243.925V222.444H242.147V220.667ZM243.925 220.667H245.703V222.444H243.925V220.667ZM243.925 222.444H245.703V224.222H243.925V222.444ZM243.925 224.222H245.703V226H243.925V224.222ZM235.036 199.333H236.814V201.111H235.036V199.333ZM236.814 199.333H238.592V201.111H236.814V199.333ZM238.592 199.333H240.369V201.111H238.592V199.333ZM240.369 199.333H242.147V201.111H240.369V199.333ZM242.147 199.333H243.925V201.111H242.147V199.333ZM243.925 199.333H245.703V201.111H243.925V199.333ZM243.925 201.111H245.703V202.889H243.925V201.111ZM243.925 202.889H245.703V204.667H243.925V202.889ZM242.147 202.889H243.925V204.667H242.147V202.889ZM240.369 202.889H242.147V204.667H240.369V202.889ZM238.592 202.889H240.369V204.667H238.592V202.889ZM236.814 202.889H238.592V204.667H236.814V202.889ZM236.814 201.111H238.592V202.889H236.814V201.111ZM235.036 201.111H236.814V202.889H235.036V201.111ZM235.036 202.889H236.814V204.667H235.036V202.889ZM238.592 201.111H240.369V202.889H238.592V201.111ZM240.369 201.111H242.147V202.889H240.369V201.111ZM242.147 201.111H243.925V202.889H242.147V201.111ZM235.036 210H236.814V211.778H235.036V210ZM235.036 211.778H236.814V213.556H235.036V211.778ZM235.036 213.556H236.814V215.333H235.036V213.556ZM236.814 213.556H238.592V215.333H236.814V213.556ZM236.814 211.778H238.592V213.556H236.814V211.778ZM236.814 210H238.592V211.778H236.814V210ZM238.592 210H240.369V211.778H238.592V210ZM238.592 211.778H240.369V213.556H238.592V211.778ZM240.369 211.778H242.147V213.556H240.369V211.778ZM240.369 210H242.147V211.778H240.369V210ZM240.369 213.556H242.147V215.333H240.369V213.556ZM238.592 213.556H240.369V215.333H238.592V213.556ZM242.147 210H243.925V211.778H242.147V210ZM242.147 211.778H243.925V213.556H242.147V211.778ZM242.147 213.556H243.925V215.333H242.147V213.556Z" fill="white"/>
<path d="M175.667 80.8333V100.5M136.333 80.8333V100.5M111.75 120.167H200.25M121.583 90.6667H190.417C195.847 90.6667 200.25 95.0692 200.25 100.5V169.333C200.25 174.764 195.847 179.167 190.417 179.167H121.583C116.153 179.167 111.75 174.764 111.75 169.333V100.5C111.75 95.0692 116.153 90.6667 121.583 90.6667Z" stroke="#D9D9D9" stroke-width="8" stroke-linecap="round" stroke-linejoin="round"/>
</svg>
